<?xml version="1.0" encoding="UTF-8" standalone="no"?>
<!-- Created with Inkscape (http://www.inkscape.org/) -->

<svg
   width="156.0434mm"
   height="180.8792mm"
   viewBox="0 0 156.0434 180.8792"
   version="1.1"
   id="svg1"
   xml:space="preserve"
   xmlns:inkscape="http://www.inkscape.org/namespaces/inkscape"
   xmlns:sodipodi="http://sodipodi.sourceforge.net/DTD/sodipodi-0.dtd"
   xmlns="http://www.w3.org/2000/svg"
   xmlns:svg="http://www.w3.org/2000/svg"><sodipodi:namedview
     id="namedview1"
     pagecolor="#ffffff"
     bordercolor="#000000"
     borderopacity="0.25"
     inkscape:showpageshadow="2"
     inkscape:pageopacity="0.0"
     inkscape:pagecheckerboard="0"
     inkscape:deskcolor="#d1d1d1"
     inkscape:document-units="mm" /><defs
     id="defs1" /><g
     inkscape:label="Layer 1"
     inkscape:groupmode="layer"
     id="layer1"
     transform="translate(52.204561,-33.567237)"><path
       style="fill:#ffffff;fill-opacity:1;stroke:none"
       d="m -7.641469,72.556716 h -20.46111 c -2.69908,0 -6.19227,-0.600319 -8.45116,1.206139 -2.29859,1.838217 -2.26136,4.924484 -2.51136,7.613305 -0.53615,5.766455 -1.22089,11.523266 -1.7971,17.286116 -2.26673,22.670304 -4.21607,45.500694 -7.19901,68.086114 -1.5763,11.935 -2.53932,24.00401 -3.7371,35.98333 -0.44097,4.41031 -1.71534,10.73159 4.64573,11.25596 12.2841,1.01261 25.06442,0.0329 37.39444,0.0329 h 75.14167 26.811108 c 3.241339,0 7.919711,0.87432 10.304861,-1.88012 2.21913,-2.56272 1.09402,-6.38304 0.73197,-9.40877 -0.8552,-7.14689 -1.58941,-14.3492 -2.21739,-21.51944 -2.317459,-26.46094 -5.210058,-53.0011 -8.365948,-79.375 -0.786376,-6.571794 -1.200853,-13.192194 -2.067671,-19.755564 -0.326714,-2.473772 -0.0038,-5.679358 -1.757623,-7.685707 -2.091916,-2.393167 -5.789287,-1.839293 -8.622647,-1.839293 h -21.16666 c 0,-8.049541 -0.5192,-15.391675 -4.53739,-22.577778 -10.50148,-18.780787 -37.63808,-22.033151 -52.58104,-6.68889 -7.94378,8.157125 -9.55657,18.380586 -9.55657,29.266668 m 10.93611,0 c 0,-6.491303 -0.16568,-12.238616 3.33859,-17.991667 7.0898,-11.63947 23.96697,-13.884639 34.05585,-4.877641 4.91802,4.390634 6.8615,9.816767 7.46823,16.16653 0.14107,1.476471 1.10636,5.247925 -0.27276,6.340203 -2.04634,1.620735 -9.18925,0.362575 -11.78158,0.362575 H 3.294641 m -10.93611,10.583333 c 0,4.067119 -1.18346,10.418067 0.76353,14.110847 2.19659,4.166184 7.66751005,3.906854 9.58952,-0.35251 1.68649,-3.73746 0.58306,-9.721697 0.58306,-13.758337 h 31.75 c 3.28885,0 9.63883,-1.238253 12.58785,0.212864 1.29931,0.639345 0.8177,3.197523 0.8177,4.373247 0,4.096854 -1.25064,12.92328 5.29167,12.64774 7.39952,-0.31165 5.29167,-12.482633 5.29167,-17.233851 h 15.52222 l 5.28187,0.565642 1.12775,8.959355 2.46945,23.636114 5.997217,57.15 3.115379,29.98612 H -41.155359 c 0.903,-21.03124 4.5483,-42.19592 6.64316,-63.14723 1.88651,-18.86757 2.59615,-38.50921 6.05684,-57.150001 z"
       id="path1" /></g></svg>
