<?xml version="1.0" encoding="UTF-8" standalone="no"?>
<!-- Created with Inkscape (http://www.inkscape.org/) -->

<svg
   width="144.49777mm"
   height="144.49937mm"
   viewBox="0 0 144.49777 144.49937"
   version="1.1"
   id="svg1"
   xml:space="preserve"
   xmlns:inkscape="http://www.inkscape.org/namespaces/inkscape"
   xmlns:sodipodi="http://sodipodi.sourceforge.net/DTD/sodipodi-0.dtd"
   xmlns="http://www.w3.org/2000/svg"
   xmlns:svg="http://www.w3.org/2000/svg"><sodipodi:namedview
     id="namedview1"
     pagecolor="#ffffff"
     bordercolor="#000000"
     borderopacity="0.25"
     inkscape:showpageshadow="2"
     inkscape:pageopacity="0.0"
     inkscape:pagecheckerboard="0"
     inkscape:deskcolor="#d1d1d1"
     inkscape:document-units="mm" /><defs
     id="defs1" /><g
     inkscape:label="Layer 1"
     inkscape:groupmode="layer"
     id="layer1"
     transform="translate(-119.0269,-101.52612)"><path
       style="fill:#ffffff;fill-opacity:1;stroke:none"
       d="m 167.56911,177.72771 c -28.84732,9.75896 -48.54222,38.0387 -48.54222,68.29777 h 11.28889 c 0,-33.71081 29.93009,-63.27222 64.06444,-60.93473 14.49364,0.9925 27.25333,6.70039 38.1,16.26305 6.20267,5.46841 11.48609,12.74429 14.67228,20.40057 3.22347,7.7459 5.08327,15.86345 5.08327,24.27111 h 11.28889 c 0,-30.25913 -19.6949,-58.5388 -48.54222,-68.29777 21.75511,-15.63924 23.84169,-46.74538 4.51142,-65.2003 -3.58434,-3.42204 -8.05789,-6.22928 -12.69586,-7.98432 -4.76005,-1.80124 -9.84894,-2.95384 -14.95778,-3.01429 -5.26849,-0.0623 -10.59784,0.96476 -15.52222,2.80698 -4.72316,1.76695 -9.29973,4.45804 -12.98113,7.92334 -19.56895,18.42026 -17.67543,49.71971 4.23224,65.46859 m 20.88444,-64.83054 c 3.45764,-0.41352 7.08432,0.0322 10.44223,0.87193 24.79743,6.20094 30.82227,40.07493 9.87777,54.58734 -4.36393,3.02377 -9.43493,4.71283 -14.67555,5.33958 -3.45764,0.41353 -7.08432,-0.0322 -10.44222,-0.87192 -24.79744,-6.20094 -30.82227,-40.07494 -9.87778,-54.58735 4.36393,-3.02377 9.43494,-4.71282 14.67555,-5.33958 z"
       id="path1" /></g></svg>
