<?xml version="1.0" encoding="UTF-8" standalone="no"?>
<!-- Created with Inkscape (http://www.inkscape.org/) -->

<svg
   width="144.34578mm"
   height="128.52177mm"
   viewBox="0 0 144.34578 128.52177"
   version="1.1"
   id="svg1"
   xml:space="preserve"
   xmlns:inkscape="http://www.inkscape.org/namespaces/inkscape"
   xmlns:sodipodi="http://sodipodi.sourceforge.net/DTD/sodipodi-0.dtd"
   xmlns="http://www.w3.org/2000/svg"
   xmlns:svg="http://www.w3.org/2000/svg"><sodipodi:namedview
     id="namedview1"
     pagecolor="#ffffff"
     bordercolor="#000000"
     borderopacity="0.25"
     inkscape:showpageshadow="2"
     inkscape:pageopacity="0.0"
     inkscape:pagecheckerboard="0"
     inkscape:deskcolor="#d1d1d1"
     inkscape:document-units="mm" /><defs
     id="defs1" /><g
     inkscape:label="Layer 1"
     inkscape:groupmode="layer"
     id="layer1"
     transform="translate(62.215093,-40.800315)"><path
       style="fill:#ffffff;fill-opacity:1;stroke:none"
       d="m -24.184078,41.011239 c -6.1756,0.810854 -12.03225,1.836933 -17.49777,5.088061 -18.9335,11.262465 -25.13941,36.155087 -17.08773,56.03439 7.41426,18.30554 24.18531,31.96031 38.81884,44.42779 6.60223,5.62498 13.1533004,11.30834 19.75555039,16.93333 3.51476001,2.99451 6.56963001,6.36258 11.57110961,5.75572 3.63652,-0.44123 6.39782,-3.75 9.03111,-5.99351 6.22463,-5.30326 12.43491,-10.62682 18.62667,-15.96777 20.66241,-17.82319 46.646349,-39.00574 42.69504,-69.42667 -0.51059,-3.930975 -1.38023,-7.913583 -2.94417,-11.571111 -1.93234,-4.519069 -4.31183,-8.749121 -7.62545,-12.417777 -12.09343,-13.389148 -31.89076,-16.644531 -47.64764,-8.097335 -3.5939,1.949484 -7.08201,4.729134 -9.75801,7.815112 -0.73327,0.845616 -2.6001,3.935428 -3.7886596,3.935428 -0.9757,0 -1.98268,-1.876802 -2.55437,-2.524317 -2.09065,-2.367908 -4.24709,-4.496366 -6.75896001,-6.424689 C -6.0814376,43.409146 -15.588548,39.882651 -24.184078,41.011239 m -0.84666,8.427693 c 9.01843,-1.107555 17.8850504,2.668545 24.15134039,9.030887 2.90126001,2.945738 6.05556001,10.439707 10.56199001,10.670658 3.3633396,0.172366 4.8394996,-2.70434 6.4982896,-5.106786 2.06005,-2.983564 4.52439,-5.747573 7.3306,-8.053565 11.44869,-9.407918 28.30953,-8.50296 39.22888,1.32836 3.42505,3.083765 6.05316,7.022086 7.85977,11.240761 1.32576,3.095857 2.17494,6.273346 2.69809,9.595555 4.33562,27.533298 -21.97719,47.578238 -40.47341,63.336678 -5.38263,4.5859 -10.7044,9.2433 -16.08667,13.82889 -1.66485,1.41842 -4.31388,4.7747 -6.49111,5.20478 -1.8865996,0.37267 -5.1570796,-3.57429 -6.4911096,-4.72243 -6.11101,-5.25951 -12.21897,-10.522 -18.3444404,-15.76481 -13.30448,-11.38735 -29.50584,-23.99947 -36.27884,-40.716442 -8.41495,-20.769628 2.04436,-46.950595 25.83662,-49.872536 z"
       id="path1" /></g></svg>
